<svg xmlns="http://www.w3.org/2000/svg" viewBox="0 0 64 64" id="music-note"><path fill="#FF8000" d="m21 19 39-4V3L21 7z"></path><circle cx="12.5" cy="52.5" r="8.5" fill="#666"></circle><circle cx="51.5" cy="52.5" r="8.5" fill="#666"></circle><path d="M12.5 62C7.262 62 3 57.738 3 52.5S7.262 43 12.5 43s9.5 4.262 9.5 9.5-4.262 9.5-9.5 9.5zm0-17C8.364 45 5 48.364 5 52.5S8.364 60 12.5 60s7.5-3.364 7.5-7.5-3.364-7.5-7.5-7.5zM51.5 62c-5.238 0-9.5-4.262-9.5-9.5s4.262-9.5 9.5-9.5 9.5 4.262 9.5 9.5-4.262 9.5-9.5 9.5zm0-17c-4.136 0-7.5 3.364-7.5 7.5s3.364 7.5 7.5 7.5 7.5-3.364 7.5-7.5-3.364-7.5-7.5-7.5z"></path><path d="M61 52h-2V4.108L22 7.903V52h-2V6.097l41-4.205z"></path><path d="m59.899 14.005.204 1.99-39.001 4.003-.204-1.99z"></path></svg>